<svg width="33" height="59" viewBox="0 0 33 59" fill="none" xmlns="http://www.w3.org/2000/svg">
<path fill-rule="evenodd" clip-rule="evenodd" d="M31.0425 14.6808C31.4751 15.1135 31.7182 15.7002 31.7182 16.312C31.7182 16.9239 31.4751 17.5106 31.0425 17.9432L17.9929 30.9929C17.5602 31.4255 16.9735 31.6685 16.3617 31.6685C15.7498 31.6685 15.1631 31.4255 14.7305 30.9929L1.68083 17.9432C1.24821 17.5106 1.00516 16.9239 1.00516 16.312C1.00516 15.7002 1.24821 15.1135 1.68083 14.6808C2.11345 14.2482 2.70022 14.0052 3.31204 14.0052C3.92386 14.0052 4.51062 14.2482 4.94324 14.6808L16.3617 26.0993L27.7801 14.6808C28.2127 14.2482 28.7995 14.0052 29.4113 14.0052C30.0231 14.0052 30.6099 14.2482 31.0425 14.6808V14.6808Z" fill="white"/>
<path fill-rule="evenodd" clip-rule="evenodd" d="M14.7305 27.7304C15.1631 27.2978 15.7499 27.0548 16.3617 27.0548C16.9735 27.0548 17.5603 27.2978 17.9929 27.7304L31.0425 40.78C31.4752 41.2127 31.7182 41.7994 31.7182 42.4112C31.7182 43.0231 31.4752 43.6098 31.0425 44.0425C30.6099 44.4751 30.0232 44.7181 29.4113 44.7181C28.7995 44.7181 28.2128 44.4751 27.7801 44.0425L16.3617 32.624L4.94329 44.0425C4.51067 44.4751 3.92391 44.7181 3.31209 44.7181C2.70027 44.7181 2.11351 44.4751 1.68089 44.0425C1.24826 43.6098 1.00522 43.0231 1.00522 42.4112C1.00522 41.7994 1.24826 41.2127 1.68089 40.78L14.7305 27.7304Z" fill="white"/>
</svg>
