<svg width="335" height="92" viewBox="0 0 335 92" fill="none" xmlns="http://www.w3.org/2000/svg">
<path d="M57 1.5H0V91.5H57V72.5H19.5V55H52.5V37H19.5V21.5H57V1.5Z" fill="#58595B"/>
<path fill-rule="evenodd" clip-rule="evenodd" d="M75 1.5H113.5C122.333 2.33333 139.8 9.1 139 29.5C138.2 49.9 121.667 57.3333 113.5 58.5H94.5V91.5H75V1.5ZM95 18.5H108.5C112 18.8333 119 21.6 119 30C119 38.4 112 40.8333 108.5 41H95V18.5Z" fill="#58595B"/>
<path d="M190.5 0H175L131.5 91H147.5L190.5 0Z" fill="#32B1E6"/>
<path d="M221 1H205.5L162 92H178L221 1Z" fill="#FFCC3E"/>
<path d="M233.5 0V91.5H252V34L276.5 91.5H293L316 34V91.5H335V0H309L284 61L257.5 0H233.5Z" fill="#939598"/>
</svg>
