<svg width="170" height="160" viewBox="0 0 170 160" fill="none" xmlns="http://www.w3.org/2000/svg">
<circle cx="80.6164" cy="80" r="79" stroke="white" stroke-width="2"/>
<circle cx="145.274" cy="124.932" r="24.1096" fill="#32B1E6"/>
<path fill-rule="evenodd" clip-rule="evenodd" d="M145.822 115.069C146.129 115.069 146.423 115.19 146.64 115.407C146.857 115.624 146.979 115.918 146.979 116.225V125.479C146.979 125.786 146.857 126.08 146.64 126.297C146.423 126.514 146.129 126.636 145.822 126.636H136.568C136.261 126.636 135.967 126.514 135.75 126.297C135.533 126.08 135.411 125.786 135.411 125.479C135.411 125.173 135.533 124.878 135.75 124.662C135.967 124.445 136.261 124.323 136.568 124.323H144.665V116.225C144.665 115.918 144.787 115.624 145.004 115.407C145.221 115.19 145.515 115.069 145.822 115.069V115.069Z" fill="white"/>
<path fill-rule="evenodd" clip-rule="evenodd" d="M144.665 125.479C144.665 125.173 144.787 124.878 145.004 124.661C145.221 124.445 145.515 124.323 145.822 124.323H155.076C155.383 124.323 155.677 124.445 155.894 124.661C156.111 124.878 156.233 125.173 156.233 125.479C156.233 125.786 156.111 126.08 155.894 126.297C155.677 126.514 155.383 126.636 155.076 126.636H146.979V134.734C146.979 135.04 146.857 135.335 146.64 135.552C146.423 135.769 146.129 135.89 145.822 135.89C145.515 135.89 145.221 135.769 145.004 135.552C144.787 135.335 144.665 135.04 144.665 134.734V125.479Z" fill="white"/>
</svg>
