<svg xmlns="http://www.w3.org/2000/svg" viewBox="0 0 300 300">
  <title>me</title>
  <g id="Layer_2" data-name="Layer 2">
    <g>
      <path id="skin" d="M90.34,142.18c0-47.92,16.26-81.82,58.41-81.27,58.95.77,58.4,33.35,58.4,81.27,0,3.73,6.07,2.76,5.51,13.78-1.65,14-6.83,10.58-7.51,14.36-6.7,37-29.41,64.16-56.4,64.16-27.33,0-50.27-27.88-56.64-65.54-.6-3.51-4.25-.58-4.65-13.52C86.49,143.56,90.34,145.73,90.34,142.18Z" style="fill: #ffdfbf;fill-rule: evenodd"/>
      <ellipse id="eye_left" data-name="eye left" cx="114.97" cy="140.23" rx="20.37" ry="26.03" style="fill: #fff"/>
      <ellipse id="eye_right" data-name="eye right" cx="158.6" cy="140.23" rx="20.37" ry="26.03" style="fill: #fff"/>
      <ellipse cx="136.79" cy="177.85" rx="35.88" ry="21.62" style="fill: #ffdfbf"/>
      <path id="hair" d="M148.75,60.91C114,60.46,96.85,83.42,91.9,118.36c6.35-17.25,20.15-18.79,46.54-19.21,51.11-.81,64,6,57.63,69.86-1.34,13.46,3.12,17.23-14.83,24.75-4.56,1.91,7.43-21-37.45-15.42-46.66,5.8-26,26.25-33.24,21.21a59.34,59.34,0,0,1-14.68-15c9.33,29.49,29.5,49.92,52.88,49.92,27,0,49.7-27.2,56.4-64.16l2-28.14C207.15,94.26,207.7,61.68,148.75,60.91Z" style="fill: #d0b57b;fill-rule: evenodd"/>
      <g id="outline">
        <path d="M147.74,60.91h1c58.95.77,58.4,33.35,58.4,81.27,0,3.73,6.07,2.76,5.51,13.78-1.65,14-6.83,10.58-7.51,14.36-6.7,37-29.41,64.16-56.4,64.16-27.33,0-50.27-27.88-56.64-65.54-.6-3.51-4.25-.58-4.65-13.52-1-11.86,2.88-9.69,2.88-13.24,0-47.54,16-81.27,57.4-81.27m0-7h0c-22.23,0-39.1,8.76-50.12,26-9.32,14.6-14.12,35.1-14.27,61-2.29,3-3.52,6.87-2.88,14.91.3,8.92,2.11,12.77,5,15.56,7.41,41.35,33.32,70.11,63.32,70.11,15,0,29.58-7.33,41.1-20.64,10.48-12.1,18.2-28.91,21.85-47.49,5.37-3.76,7.07-9.37,7.92-16.57l0-.24,0-.23c.43-8.63-2.33-12.78-5.51-15.83,0-24,0-44.81-8.09-60.24-9.16-17.57-27.34-25.94-57.22-26.33Z" style="fill: #474747"/>
      </g>
      <path id="nose" d="M127.61,170.49s3.1,3.1,9.3,2.86,9.05-3.81,9.05-3.81-2.62,6-8.34,6.43S127.61,170.49,127.61,170.49Z" style="fill: #bfa78f;fill-rule: evenodd"/>
      <g id="pupil_left" data-name="pupil left">
        <circle cx="108.94" cy="144.59" r="7.6" style="fill: #474747"/>
      </g>
      <g id="pupil_right" data-name="pupil right">
        <circle cx="151.39" cy="144.59" r="7.6" style="fill: #474747"/>
      </g>
      <g id="mouth">
        <path d="M151.15,220h0c-15.27,1.7-27.19-2.7-29.22-20.88h0c-.62-5.46,2.61-10.31,7.2-10.82l35.65-4c3.25-.37,6.24,2.48,6.67,6.35L172.5,200C174.13,214.63,163.41,218.64,151.15,220Z" style="fill: #474747;fill-rule: evenodd"/>
      </g>
      <path id="teeth" d="M164.78,184.33l-35.65,4c-4.59.51-8,3.39-7.7,6.43l0,.15c7,.89,16.14.53,26.41-.62h0c8.9-1,17.32-2.31,23.5-4.35l-.27-2.36C170.86,185.41,168,184,164.78,184.33Z" style="fill: #fff"/>
    </g>
  </g>
</svg>
