<svg xmlns="http://www.w3.org/2000/svg" viewBox="0 0 300 300">
  <title>me</title>
  <g id="Layer_2" data-name="Layer 2">
    <g>
      <path id="skin" d="M90.34,142.18c0-47.92,16.26-81.82,58.41-81.27,58.95.77,58.4,33.35,58.4,81.27,0,3.73,6.07,2.76,5.51,13.78-1.65,14-6.83,10.58-7.51,14.36-6.7,37-29.41,64.16-56.4,64.16-27.33,0-50.27-27.88-56.64-65.54-.6-3.51-4.25-.58-4.65-13.52C86.49,143.56,90.34,145.73,90.34,142.18Z" style="fill: #ffdfbf;fill-rule: evenodd"/>
      <ellipse id="eye_left" data-name="eye left" cx="114.97" cy="140.23" rx="20.37" ry="26.03" style="fill: #fff"/>
      <ellipse id="eye_right" data-name="eye right" cx="158.6" cy="140.23" rx="20.37" ry="26.03" style="fill: #fff"/>
      <g id="pupil_left" data-name="pupil left">
        <circle cx="110.94" cy="155.59" r="7.6" style="fill: #474747"/>
      </g>
      <g id="pupil_right" data-name="pupil right">
        <circle cx="153.39" cy="155.59" r="7.6" style="fill: #474747"/>
      </g>
      <ellipse cx="163.63" cy="127.52" rx="15.02" ry="26.58" transform="matrix(0.5, -0.87, 0.87, 0.5, -28.62, 205.46)" style="fill: #ffdfbf"/>
      <ellipse cx="109.94" cy="125.52" rx="26.58" ry="15.02" transform="translate(-50.91 81.14) rotate(-33.36)" style="fill: #ffdfbf"/>
      <ellipse cx="155.61" cy="166.45" rx="8.83" ry="23.33" transform="translate(-17.05 315.14) rotate(-87.66)" style="fill: #ffdfbf"/>
      <ellipse cx="114.97" cy="166.45" rx="8.83" ry="23.33" transform="translate(-56.03 274.54) rotate(-87.66)" style="fill: #ffdfbf"/>
      <path id="hair" d="M148.75,60.91C114,60.46,96.85,83.42,91.9,118.36c6.35-17.25,20.15-18.79,46.54-19.21,51.11-.81,64,6,57.63,69.86-1.34,13.46-4.42,17.81-20.52,28.75-8.73,5.94,13.42-19.08-36-19.51-35.81-.31-21.75,26.34-29,21.3a59.34,59.34,0,0,1-14.68-15c9.33,29.49,29.5,49.92,52.88,49.92,27,0,49.7-27.2,56.4-64.16l2-28.14C207.15,94.26,207.7,61.68,148.75,60.91Z" style="fill: #d0b57b;fill-rule: evenodd"/>
      <g id="outline">
        <path d="M147.74,60.91h1c58.95.77,58.4,33.35,58.4,81.27,0,3.73,6.07,2.76,5.51,13.78-1.65,14-6.83,10.58-7.51,14.36-6.7,37-29.41,64.16-56.4,64.16-27.33,0-50.27-27.88-56.64-65.54-.6-3.51-4.25-.58-4.65-13.52-1-11.86,2.88-9.69,2.88-13.24,0-47.54,16-81.27,57.4-81.27m0-7h0c-22.23,0-39.1,8.76-50.12,26-9.32,14.6-14.12,35.1-14.27,61-2.29,3-3.52,6.86-2.88,14.91.3,8.92,2.11,12.77,5,15.56,7.41,41.35,33.32,70.11,63.32,70.11,15,0,29.58-7.33,41.1-20.64,10.48-12.1,18.2-28.91,21.85-47.49,5.37-3.76,7.07-9.37,7.92-16.57l0-.24,0-.23c.43-8.63-2.33-12.78-5.51-15.83,0-24,0-44.81-8.09-60.24-9.16-17.57-27.34-25.94-57.22-26.33Z" style="fill: #474747"/>
      </g>
      <path id="nose" d="M127.61,170.49s3.1,3.1,9.3,2.86,9.05-3.81,9.05-3.81-2.62,6-8.34,6.43S127.61,170.49,127.61,170.49Z" style="fill: #bfa78f;fill-rule: evenodd"/>
      <path d="M121.74,204.64a8.58,8.58,0,0,1,.34-1.69,15.29,15.29,0,0,1,.63-1.58,14.42,14.42,0,0,1,1.82-2.88,18.73,18.73,0,0,1,5.25-4.37,23.24,23.24,0,0,1,6.36-2.44c.55-.12,1.1-.2,1.65-.29a16.08,16.08,0,0,1,1.66-.22c1.11-.06,2.22-.16,3.32-.11a26.13,26.13,0,0,1,12.72,3.56,21.15,21.15,0,0,1,5.11,4.21,16.47,16.47,0,0,1,1.94,2.68c.27.5.54,1,.77,1.48a11.7,11.7,0,0,1,.54,1.61l-.45.39a22.67,22.67,0,0,0-4.52-3.42,29.14,29.14,0,0,0-5.12-2.48,32.78,32.78,0,0,0-11.14-2,30,30,0,0,0-11.18,1.57,22.52,22.52,0,0,0-5,2.53,16.29,16.29,0,0,0-4.14,3.79Z" style="fill: #474747"/>
    </g>
  </g>
</svg>
