<svg xmlns="http://www.w3.org/2000/svg" viewBox="0 0 300 300">
  <title>me</title>
  <g id="Layer_2" data-name="Layer 2">
    <g>
      <path id="skin" d="M90.34,142.18c0-47.92,16.26-81.82,58.41-81.27,58.95.77,58.4,33.35,58.4,81.27,0,3.73,6.07,2.76,5.51,13.78-1.65,14-6.83,10.58-7.51,14.36-6.7,37-29.41,64.16-56.4,64.16-27.33,0-50.27-27.88-56.64-65.54-.6-3.51-4.25-.58-4.65-13.52C86.49,143.56,90.34,145.73,90.34,142.18Z" style="fill: #ffdfbf;fill-rule: evenodd"/>
      <path id="hair" d="M148.75,60.91C114,60.46,96.85,83.42,91.9,118.36c6.35-17.25,20.15-18.79,46.54-19.21,51.11-.81,64,6,57.63,69.86-1.34,13.46-4.42,17.81-20.52,28.75-8.73,5.94,13.42-19.08-36-19.51-35.81-.31-21.75,26.34-29,21.3a59.34,59.34,0,0,1-14.68-15c9.33,29.49,29.5,49.92,52.88,49.92,27,0,49.7-27.2,56.4-64.16l2-28.14C207.15,94.26,207.7,61.68,148.75,60.91Z" style="fill: #fffdf9;fill-rule: evenodd"/>
      <g id="outline">
        <path d="M147.74,60.91h1c58.95.77,58.4,33.35,58.4,81.27,0,3.73,6.07,2.76,5.51,13.78-1.65,14-6.83,10.58-7.51,14.36-6.7,37-29.41,64.16-56.4,64.16-27.33,0-50.27-27.88-56.64-65.54-.6-3.51-4.25-.58-4.65-13.52-1-11.86,2.88-9.69,2.88-13.24,0-47.54,16-81.27,57.4-81.27m0-7h0c-22.23,0-39.1,8.76-50.12,26-9.32,14.6-14.12,35.1-14.27,61-2.29,3-3.52,6.86-2.88,14.91.3,8.92,2.11,12.77,5,15.56,7.41,41.35,33.32,70.11,63.32,70.11,15,0,29.58-7.33,41.1-20.64,10.48-12.1,18.2-28.91,21.85-47.49,5.37-3.76,7.07-9.37,7.92-16.57l0-.24,0-.23c.43-8.63-2.33-12.78-5.51-15.83,0-24,0-44.81-8.09-60.24-9.16-17.57-27.34-25.94-57.22-26.33Z" style="fill: #474747"/>
      </g>
      <path id="nose" d="M127.61,170.49s3.1,3.1,9.3,2.86,9.05-3.81,9.05-3.81-2.62,6-8.34,6.43S127.61,170.49,127.61,170.49Z" style="fill: #bfa78f;fill-rule: evenodd"/>
      <ellipse id="eye_left" data-name="eye left" cx="114.97" cy="140.23" rx="20.37" ry="26.03" style="fill: #fff"/>
      <ellipse id="eye_right" data-name="eye right" cx="158.6" cy="140.23" rx="20.37" ry="26.03" style="fill: #fff"/>
      <g id="pupil_left" data-name="pupil left">
        <circle cx="108.94" cy="144.59" r="7.6" style="fill: #474747"/>
      </g>
      <g id="pupil_right" data-name="pupil right">
        <circle cx="151.39" cy="144.59" r="7.6" style="fill: #474747"/>
      </g>
      <path d="M158.76,34.07c25.94-.28,48.55,20,54.76,45.34s0,40.21,0,40.21L87.3,103.85S92.09,34.8,158.76,34.07Z" style="fill: #ff3f02"/>
      <path d="M126,199.66a25.13,25.13,0,0,0,18.16,6.25A24.71,24.71,0,0,0,159,199.38" style="fill: #474747;fill-rule: evenodd"/>
      <path d="M197.37,101.24c27.44-23-15.24-61.49-15.24-61.49s28.82,15.06,36,45.88c9.53,40.78-10.79,42-10.79,42S192,105.77,197.37,101.24Z" style="fill: #e31000"/>
      <path d="M82.05,125.38c2.41,2.62,26.89-12.94,64.92-11.87,36.45,1,47.84,6.2,60.53,16.93,5.2,4.39,6.09,5.74,8.77,9.79,1.26,1.9,4.62-26.25.51-32.79-4.59-7.31-9.7-11.15-17.76-15.15-12.07-6-27.25-9.69-48.06-10.1C121.6,81.62,95.75,79,87.3,96.71,84.43,102.74,79.81,123,82.05,125.38Z" style="fill: #fcfcfc"/>
      <path d="M204,95s-12,9.93-37.35,10.54-63,13.67-63,13.67,45.32-10.92,77.14-1c33.63,10.53,31.77,21.25,33.65,22.23,6.23,3.27,7-21.9,3.28-33C215.55,100.8,204,95,204,95Z" style="fill: #ededed"/>
      <circle cx="221.95" cy="103.54" r="16.08" style="fill: #fff"/>
      <path d="M227.84,88.59A16.05,16.05,0,0,1,208.28,112a16.07,16.07,0,1,0,19.56-23.39Z" style="fill: #ededed"/>
    </g>
  </g>
</svg>
