<svg xmlns="http://www.w3.org/2000/svg" viewBox="0 0 300 300">
  <title>me</title>
  <g id="Layer_2" data-name="Layer 2">
    <g>
      <path id="skin" d="M90.34,142.18c0-47.92,16.26-81.82,58.41-81.27,58.95.77,58.4,33.35,58.4,81.27,0,3.73,6.07,2.76,5.51,13.78-1.65,14-6.83,10.58-7.51,14.36-6.7,37-29.41,64.16-56.4,64.16-27.33,0-50.27-27.88-56.64-65.54-.6-3.51-4.25-.58-4.65-13.52C86.49,143.56,90.34,145.73,90.34,142.18Z" style="fill: #fcfffc;fill-rule: evenodd"/>
      <path id="hair" d="M148.75,60.91C114,60.46,96.85,83.42,91.9,118.36c6.35-17.25,20.15-18.79,46.54-19.21,51.11-.81,64,6,57.63,69.86-1.34,13.46-4.42,17.81-20.52,28.75-8.73,5.94,13.42-19.08-36-19.51-35.81-.31-21.75,26.34-29,21.3a59.34,59.34,0,0,1-14.68-15c9.33,29.49,29.5,49.92,52.88,49.92,27,0,49.7-27.2,56.4-64.16l2-28.14C207.15,94.26,207.7,61.68,148.75,60.91Z" style="fill: #e1edff;fill-rule: evenodd"/>
      <g id="outline">
        <path d="M147.74,60.91h1c58.95.77,58.4,33.35,58.4,81.27,0,3.73,6.07,2.76,5.51,13.78-1.65,14-6.83,10.58-7.51,14.36-6.7,37-29.41,64.16-56.4,64.16-27.33,0-50.27-27.88-56.64-65.54-.6-3.51-4.25-.58-4.65-13.52-1-11.86,2.88-9.69,2.88-13.24,0-47.54,16-81.27,57.4-81.27m0-7h0c-22.23,0-39.1,8.76-50.12,26-9.32,14.6-14.12,35.1-14.27,61-2.29,3-3.52,6.86-2.88,14.91.3,8.92,2.11,12.77,5,15.56,7.41,41.35,33.32,70.11,63.32,70.11,15,0,29.58-7.33,41.1-20.64,10.48-12.1,18.2-28.91,21.85-47.49,5.37-3.76,7.07-9.37,7.92-16.57l0-.24,0-.23c.43-8.63-2.33-12.78-5.51-15.83,0-24,0-44.81-8.09-60.24-9.16-17.57-27.34-25.94-57.22-26.33Z" style="fill: #9daac2"/>
      </g>
      <ellipse id="eye_left" data-name="eye left" cx="114.97" cy="140.23" rx="20.37" ry="26.03" style="fill: #fff"/>
      <ellipse id="eye_right" data-name="eye right" cx="158.6" cy="140.23" rx="20.37" ry="26.03" style="fill: #fff"/>
      <g id="pupil_left" data-name="pupil left">
        <path d="M115.69,123.51c4.51,1.71,7.24,8.65,5.07,11.28-3.07,3.73-6.76,6.79-11.28,5.08s-5.56-9-3.84-13.5S111.17,121.8,115.69,123.51Z" style="fill: #474747;fill-rule: evenodd"/>
      </g>
      <g id="pupil_left-2" data-name="pupil left">
        <path d="M155.09,126.88c3.52,4.23,2.33,12.63-1.29,14-5.13,2-10.51,2.94-14-1.29s-.48-12,3.75-15.53S151.57,122.65,155.09,126.88Z" style="fill: #474747;fill-rule: evenodd"/>
      </g>
      <path d="M133.25,196.46c2.09,7.43-2.79,6.23-6.24,6.23a6.24,6.24,0,0,1,0-12.47C130.46,190.22,132.31,193.14,133.25,196.46Z" style="fill: #474747"/>
      <path d="M150.7,200.86c-1.31,6.3-2.79,6.23-6.23,6.23s-4.65-2.79-4.65-6.23-1.59-6.23,4.65-6.23C147.91,194.63,151.4,197.49,150.7,200.86Z" style="fill: #474747"/>
      <path d="M158.22,202.64c-4.8-4.29-4-5.53-2.28-8.51s4.74-2.63,7.72-.9,6.19,1.74,3.07,7.13C165,203.35,160.79,204.94,158.22,202.64Z" style="fill: #474747"/>
      <path d="M70.94,155.16s46.4-12.28,62.91-10.16c5.72.74,15.71,7.6,15.73,16.89,0,13.11-6.05,17.46-11.35,18-19.38,2-72.36-14.61-75.67-18.64S70.94,155.16,70.94,155.16Z" style="fill: #ff9405"/>
    </g>
  </g>
</svg>
