<svg xmlns="http://www.w3.org/2000/svg" viewBox="0 0 300 300">
  <title>me</title>
  <g id="Layer_2" data-name="Layer 2">
    <g>
      <path d="M143.79,144.59c30.68,3.57,72.79-4.36,72.79-4.36s-3.88-28.27-77-36.74c-27.45-3.18-58.53,24.89-58.53,24.89" style="fill: #3f005b"/>
      <path id="skin" d="M90.34,142.18c0-47.92,16.26-81.82,58.41-81.27,58.95.77,58.4,33.35,58.4,81.27,0,3.73,6.07,2.76,5.51,13.78-1.65,14-6.83,10.58-7.51,14.36-6.7,37-29.41,64.16-56.4,64.16-27.33,0-50.27-27.88-56.64-65.54-.6-3.51-4.25-.58-4.65-13.52C86.49,143.56,90.34,145.73,90.34,142.18Z" style="fill: #ffdfbf;fill-rule: evenodd"/>
      <path id="hair" d="M148.75,60.91C114,60.46,96.85,83.42,91.9,118.36c6.35-17.25,20.15-18.79,46.54-19.21,51.11-.81,64,6,57.63,69.86-1.34,13.46-4.42,17.81-20.52,28.75-8.73,5.94,13.42-19.08-36-19.51-35.81-.31-21.75,26.34-29,21.3a59.34,59.34,0,0,1-14.68-15c9.33,29.49,29.5,49.92,52.88,49.92,27,0,49.7-27.2,56.4-64.16l2-28.14C207.15,94.26,207.7,61.68,148.75,60.91Z" style="fill: #d0b57b;fill-rule: evenodd"/>
      <g id="outline">
        <path d="M147.74,60.91h1c58.95.77,58.4,33.35,58.4,81.27,0,3.73,6.07,2.76,5.51,13.78-1.65,14-6.83,10.58-7.51,14.36-6.7,37-29.41,64.16-56.4,64.16-27.33,0-50.27-27.88-56.64-65.54-.6-3.51-4.25-.58-4.65-13.52-1-11.86,2.88-9.69,2.88-13.24,0-47.54,16-81.27,57.4-81.27m0-7h0c-22.23,0-39.1,8.76-50.12,26-9.32,14.6-14.12,35.1-14.27,61-2.29,3-3.52,6.87-2.88,14.91.3,8.92,2.11,12.77,5,15.56,7.41,41.35,33.32,70.11,63.32,70.11,15,0,29.58-7.33,41.1-20.64,10.48-12.1,18.2-28.91,21.85-47.49,5.37-3.76,7.07-9.37,7.92-16.57l0-.24,0-.23c.43-8.63-2.33-12.78-5.51-15.83,0-24,0-44.81-8.09-60.24-9.16-17.57-27.34-25.94-57.22-26.33Z" style="fill: #474747"/>
      </g>
      <path id="nose" d="M127.61,170.49s3.1,3.1,9.3,2.86,9.05-3.81,9.05-3.81-2.62,6-8.34,6.43S127.61,170.49,127.61,170.49Z" style="fill: #bfa78f;fill-rule: evenodd"/>
      <ellipse id="eye_left" data-name="eye left" cx="114.97" cy="140.23" rx="20.37" ry="26.03" style="fill: #fff"/>
      <ellipse id="eye_right" data-name="eye right" cx="158.6" cy="140.23" rx="20.37" ry="26.03" style="fill: #fff"/>
      <g id="pupil_left" data-name="pupil left">
        <circle cx="108.94" cy="144.59" r="7.6" style="fill: #474747"/>
      </g>
      <g id="pupil_right" data-name="pupil right">
        <circle cx="151.39" cy="144.59" r="7.6" style="fill: #474747"/>
      </g>
      <g id="mouth">
        <path d="M143.84,209.08h0c-12.24,0-21.29-3.17-21.29-13.32h0c0-3.06,3-5.54,6.66-5.54h28.58c2.61,0,4.72,1.76,4.72,3.92v5.23C162.51,207.53,153.67,209.08,143.84,209.08Z" style="fill: #474747;fill-rule: evenodd"/>
      </g>
      <path id="teeth" d="M157.79,190.22H129.21c-3.68,0-6.66,2.48-6.66,5.54v.15c5.48,1.66,12.74,2.32,21,2.32h0c7.14,0,13.92-.38,19-1.71v-2.38C162.51,192,160.4,190.22,157.79,190.22Z" style="fill: #fff"/>
      <path d="M94.6,200.65s25.19,18.54,47.58,18.54c8.2,0,18-1.49,27-3.39,15.7-3.29,29.35-7.77,29.35-7.77V243.2s-22.1,16-56.39,14-49.5-22.73-49.5-22.73Z" style="fill: #5e0090;fill-rule: evenodd"/>
      <path d="M170.56,279.88l-1.34-64.08,9.75-2.24s-1.76-9.36-9.75-6.53-11.43,5.61-25.38,7.05-18.63-6.54-21.29,1.29,0,57.17,0,57.17v7.34Z" style="fill: #af70cb;fill-rule: evenodd"/>
      <path d="M169.4,279.88s-2.09-56.37-2-62.95c.08-4.36.42-10.9,4.85-10.42s6.69,7.05,6.69,7.05l-7.35,1.72-1.06,64.6Z" style="fill: #3f0060;fill-rule: evenodd"/>
      <line x1="124.51" y1="279.88" x2="124.51" y2="293.21" style="fill: none;stroke: #7d00b5;stroke-miterlimit: 10;stroke-width: 3px"/>
      <line x1="128.81" y1="279.88" x2="128.81" y2="293.21" style="fill: none;stroke: #7d00b5;stroke-miterlimit: 10;stroke-width: 3px"/>
      <line x1="133.11" y1="279.88" x2="133.11" y2="294.89" style="fill: none;stroke: #7d00b5;stroke-miterlimit: 10;stroke-width: 3px"/>
      <line x1="137.41" y1="279.88" x2="137.41" y2="293.21" style="fill: none;stroke: #7d00b5;stroke-miterlimit: 10;stroke-width: 3px"/>
      <line x1="141.71" y1="279.88" x2="141.71" y2="294.89" style="fill: none;stroke: #7d00b5;stroke-miterlimit: 10;stroke-width: 3px"/>
      <line x1="146.01" y1="279.88" x2="146.01" y2="293.21" style="fill: none;stroke: #7d00b5;stroke-miterlimit: 10;stroke-width: 3px"/>
      <line x1="150.31" y1="279.88" x2="150.31" y2="293.21" style="fill: none;stroke: #7d00b5;stroke-miterlimit: 10;stroke-width: 3px"/>
      <line x1="154.61" y1="279.88" x2="154.61" y2="295.91" style="fill: none;stroke: #7d00b5;stroke-miterlimit: 10;stroke-width: 3px"/>
      <line x1="158.92" y1="279.88" x2="158.92" y2="293.21" style="fill: none;stroke: #7d00b5;stroke-miterlimit: 10;stroke-width: 3px"/>
      <line x1="163.22" y1="279.88" x2="163.22" y2="293.21" style="fill: none;stroke: #7d00b5;stroke-miterlimit: 10;stroke-width: 3px"/>
      <circle cx="183.6" cy="49.85" r="16.08" style="fill: #af70cb"/>
      <line x1="167.52" y1="279.88" x2="167.52" y2="293.21" style="fill: none;stroke: #7d00b5;stroke-miterlimit: 10;stroke-width: 3px"/>
      <path d="M158.27,49.85c25.77-.23,48.24,16.35,54.4,37s0,32.8,0,32.8L87.3,106.76S92.06,50.45,158.27,49.85Z" style="fill: #5e0090"/>
      <path d="M81.05,128.38s36.48-10.82,61.48-10c36.44,1.22,49.51,8,65,14a19.18,19.18,0,0,1,9.08,7.79c1.26,1.9,4.21-29.44,2.2-32.79S185,82.14,146,82.19c-36.46,0-55.79,8.49-58.66,14.52S81.05,128.38,81.05,128.38Z" style="fill: #af70cb"/>
    </g>
  </g>
</svg>
