{
    "asset" : {
        "generator" : "Khronos glTF Blender I/O v1.3.48",
        "version" : "2.0"
    },
    "scene" : 0,
    "scenes" : [
        {
            "name" : "Scene",
            "nodes" : [
                3
            ]
        }
    ],
    "nodes" : [
        {
            "mesh" : 0,
            "name" : "node-0"
        },
        {
            "children" : [
                0
            ],
            "name" : "Node_3",
            "translation" : [
                -0.3236164152622223,
                -1.4547712802886963,
                -0.009311210364103317
            ]
        },
        {
            "children" : [
                1
            ],
            "name" : "Node_2",
            "translation" : [
                0.3236164152622223,
                1.4547712802886963,
                0.009311210364103317
            ]
        },
        {
            "children" : [
                2
            ],
            "name" : "Node_1"
        }
    ],
    "materials" : [
        {
            "doubleSided" : true,
            "emissiveFactor" : [
                0,
                0,
                0
            ],
            "name" : "lambert2SG",
            "pbrMetallicRoughness" : {
                "baseColorFactor" : [
                    0.10000000149011612,
                    0.05000000074505806,
                    0.019999999552965164,
                    1
                ],
                "metallicFactor" : 0,
                "roughnessFactor" : 0.9699476361274719
            }
        },
        {
            "doubleSided" : true,
            "emissiveFactor" : [
                0,
                0,
                0
            ],
            "name" : "Wood1SG",
            "pbrMetallicRoughness" : {
                "baseColorFactor" : [
                    0.23999999463558197,
                    0.11999999731779099,
                    0.05000000074505806,
                    1
                ],
                "metallicFactor" : 0,
                "roughnessFactor" : 0.9699476361274719
            }
        },
        {
            "doubleSided" : true,
            "emissiveFactor" : [
                0,
                0,
                0
            ],
            "name" : "lambert3SG",
            "pbrMetallicRoughness" : {
                "baseColorFactor" : [
                    0.019999999552965164,
                    0.019999999552965164,
                    0.019999999552965164,
                    1
                ],
                "metallicFactor" : 0,
                "roughnessFactor" : 0.9699476361274719
            }
        },
        {
            "doubleSided" : true,
            "emissiveFactor" : [
                0,
                0,
                0
            ],
            "name" : "lambert4SG",
            "pbrMetallicRoughness" : {
                "baseColorFactor" : [
                    0.1599999964237213,
                    0.1599999964237213,
                    0.1599999964237213,
                    1
                ],
                "metallicFactor" : 0,
                "roughnessFactor" : 0.9699476361274719
            }
        }
    ],
    "meshes" : [
        {
            "name" : "buffer-0-mesh-0",
            "primitives" : [
                {
                    "attributes" : {
                        "POSITION" : 0,
                        "NORMAL" : 1,
                        "TEXCOORD_0" : 2
                    },
                    "indices" : 3,
                    "material" : 0
                },
                {
                    "attributes" : {
                        "POSITION" : 4,
                        "NORMAL" : 5,
                        "TEXCOORD_0" : 6
                    },
                    "indices" : 7,
                    "material" : 1
                },
                {
                    "attributes" : {
                        "POSITION" : 8,
                        "NORMAL" : 9,
                        "TEXCOORD_0" : 10
                    },
                    "indices" : 11,
                    "material" : 2
                },
                {
                    "attributes" : {
                        "POSITION" : 12,
                        "NORMAL" : 13,
                        "TEXCOORD_0" : 14
                    },
                    "indices" : 15,
                    "material" : 3
                }
            ]
        }
    ],
    "accessors" : [
        {
            "bufferView" : 0,
            "componentType" : 5126,
            "count" : 768,
            "max" : [
                0.7605929970741272,
                2.9288671016693115,
                1.8622419834136963
            ],
            "min" : [
                -0.18940700590610504,
                0,
                -1.8622419834136963
            ],
            "type" : "VEC3"
        },
        {
            "bufferView" : 1,
            "componentType" : 5126,
            "count" : 768,
            "type" : "VEC3"
        },
        {
            "bufferView" : 2,
            "componentType" : 5126,
            "count" : 768,
            "type" : "VEC2"
        },
        {
            "bufferView" : 3,
            "componentType" : 5123,
            "count" : 768,
            "type" : "SCALAR"
        },
        {
            "bufferView" : 4,
            "componentType" : 5126,
            "count" : 900,
            "max" : [
                0.8041840195655823,
                2.717116117477417,
                1.6908819675445557
            ],
            "min" : [
                0.6317480206489563,
                0,
                -1.6908819675445557
            ],
            "type" : "VEC3"
        },
        {
            "bufferView" : 5,
            "componentType" : 5126,
            "count" : 900,
            "type" : "VEC3"
        },
        {
            "bufferView" : 6,
            "componentType" : 5126,
            "count" : 900,
            "type" : "VEC2"
        },
        {
            "bufferView" : 7,
            "componentType" : 5123,
            "count" : 900,
            "type" : "SCALAR"
        },
        {
            "bufferView" : 8,
            "componentType" : 5126,
            "count" : 48,
            "max" : [
                0.3820570111274719,
                1.974181056022644,
                0.8550699949264526
            ],
            "min" : [
                0,
                0,
                -0.8550699949264526
            ],
            "type" : "VEC3"
        },
        {
            "bufferView" : 9,
            "componentType" : 5126,
            "count" : 48,
            "type" : "VEC3"
        },
        {
            "bufferView" : 10,
            "componentType" : 5126,
            "count" : 48,
            "type" : "VEC2"
        },
        {
            "bufferView" : 11,
            "componentType" : 5123,
            "count" : 48,
            "type" : "SCALAR"
        },
        {
            "bufferView" : 12,
            "componentType" : 5126,
            "count" : 456,
            "max" : [
                0.6522250175476074,
                0.9908789992332458,
                0.866258978843689
            ],
            "min" : [
                0.4620400071144104,
                -0.00955200009047985,
                -0.866258978843689
            ],
            "type" : "VEC3"
        },
        {
            "bufferView" : 13,
            "componentType" : 5126,
            "count" : 456,
            "type" : "VEC3"
        },
        {
            "bufferView" : 14,
            "componentType" : 5126,
            "count" : 456,
            "type" : "VEC2"
        },
        {
            "bufferView" : 15,
            "componentType" : 5123,
            "count" : 456,
            "type" : "SCALAR"
        }
    ],
    "bufferViews" : [
        {
            "buffer" : 0,
            "byteLength" : 9216,
            "byteOffset" : 0
        },
        {
            "buffer" : 0,
            "byteLength" : 9216,
            "byteOffset" : 9216
        },
        {
            "buffer" : 0,
            "byteLength" : 6144,
            "byteOffset" : 18432
        },
        {
            "buffer" : 0,
            "byteLength" : 1536,
            "byteOffset" : 24576
        },
        {
            "buffer" : 0,
            "byteLength" : 10800,
            "byteOffset" : 26112
        },
        {
            "buffer" : 0,
            "byteLength" : 10800,
            "byteOffset" : 36912
        },
        {
            "buffer" : 0,
            "byteLength" : 7200,
            "byteOffset" : 47712
        },
        {
            "buffer" : 0,
            "byteLength" : 1800,
            "byteOffset" : 54912
        },
        {
            "buffer" : 0,
            "byteLength" : 576,
            "byteOffset" : 56712
        },
        {
            "buffer" : 0,
            "byteLength" : 576,
            "byteOffset" : 57288
        },
        {
            "buffer" : 0,
            "byteLength" : 384,
            "byteOffset" : 57864
        },
        {
            "buffer" : 0,
            "byteLength" : 96,
            "byteOffset" : 58248
        },
        {
            "buffer" : 0,
            "byteLength" : 5472,
            "byteOffset" : 58344
        },
        {
            "buffer" : 0,
            "byteLength" : 5472,
            "byteOffset" : 63816
        },
        {
            "buffer" : 0,
            "byteLength" : 3648,
            "byteOffset" : 69288
        },
        {
            "buffer" : 0,
            "byteLength" : 912,
            "byteOffset" : 72936
        }
    ],
    "buffers" : [
        {
            "byteLength" : 73848,
            "uri" : "fireplace.bin"
        }
    ]
}
