{
    "asset" : {
        "generator" : "Khronos glTF Blender I/O v1.3.48",
        "version" : "2.0"
    },
    "scene" : 0,
    "scenes" : [
        {
            "name" : "Scene",
            "nodes" : [
                0
            ]
        }
    ],
    "nodes" : [
        {
            "mesh" : 0,
            "name" : "node_MeshObject634761920-PolyPaper20",
            "rotation" : [
                0,
                0.7071067690849304,
                0,
                0.7071067690849304
            ],
            "scale" : [
                15,
                15,
                15
            ]
        }
    ],
    "materials" : [
        {
            "emissiveFactor" : [
                0,
                0,
                0
            ],
            "name" : "BlocksPaper",
            "pbrMetallicRoughness" : {
                "metallicFactor" : 0,
                "roughnessFactor" : 0.6000000238418579
            }
        }
    ],
    "meshes" : [
        {
            "name" : "mesh_m0-PolyPaper20_-294962",
            "primitives" : [
                {
                    "attributes" : {
                        "POSITION" : 0,
                        "NORMAL" : 1,
                        "COLOR_0" : 2
                    },
                    "indices" : 3,
                    "material" : 0
                }
            ]
        }
    ],
    "accessors" : [
        {
            "bufferView" : 0,
            "componentType" : 5126,
            "count" : 2092,
            "max" : [
                0.7800445556640625,
                0.28989624977111816,
                0.29960256814956665
            ],
            "min" : [
                -0.7881976962089539,
                -0.22294795513153076,
                -0.3439038395881653
            ],
            "type" : "VEC3"
        },
        {
            "bufferView" : 1,
            "componentType" : 5126,
            "count" : 2092,
            "type" : "VEC3"
        },
        {
            "bufferView" : 2,
            "componentType" : 5126,
            "count" : 2092,
            "type" : "VEC4"
        },
        {
            "bufferView" : 3,
            "componentType" : 5123,
            "count" : 2148,
            "type" : "SCALAR"
        }
    ],
    "bufferViews" : [
        {
            "buffer" : 0,
            "byteLength" : 25104,
            "byteOffset" : 0
        },
        {
            "buffer" : 0,
            "byteLength" : 25104,
            "byteOffset" : 25104
        },
        {
            "buffer" : 0,
            "byteLength" : 33472,
            "byteOffset" : 50208
        },
        {
            "buffer" : 0,
            "byteLength" : 4296,
            "byteOffset" : 83680
        }
    ],
    "buffers" : [
        {
            "byteLength" : 87976,
            "uri" : "sofa.bin"
        }
    ]
}
