{
   "accessors" : [
      {
         "bufferView" : 0,
         "byteOffset" : 0,
         "componentType" : 5123,
         "count" : 60,
         "max" : [ 59 ],
         "min" : [ 0 ],
         "name" : "buffer-0-accessor-indices-buffer-0-mesh-0",
         "type" : "SCALAR"
      },
      {
         "bufferView" : 2,
         "byteOffset" : 0,
         "componentType" : 5126,
         "count" : 60,
         "max" : [ 24.69093894958496, 101.75634765625, 192.2211303710938 ],
         "min" : [ -24.42383575439453, -101.7562713623047, -1.330863952636719 ],
         "name" : "buffer-0-accessor-position-buffer-0-mesh-0",
         "type" : "VEC3"
      },
      {
         "bufferView" : 2,
         "byteOffset" : 720,
         "componentType" : 5126,
         "count" : 60,
         "max" : [ 0.9009510278701782, 0.4744459986686707, 0.4810349941253662 ],
         "min" : [ -0.9009510278701782, -0.4744459986686707, -0.4339219927787781 ],
         "name" : "buffer-0-accessor-normal-buffer-0-mesh-0",
         "type" : "VEC3"
      },
      {
         "bufferView" : 1,
         "byteOffset" : 0,
         "componentType" : 5126,
         "count" : 60,
         "max" : [ 0.65625, 0 ],
         "min" : [ 0, -0.9923530220985413 ],
         "name" : "buffer-0-accessor-texcoord-buffer-0-mesh-0",
         "type" : "VEC2"
      },
      {
         "bufferView" : 3,
         "byteOffset" : 0,
         "componentType" : 5126,
         "count" : 0,
         "max" : [ 0, 0, 0, 0 ],
         "min" : [ 0, 0, 0, 0 ],
         "name" : "buffer-0-accessor-color-buffer-0-mesh-0",
         "type" : "VEC4"
      }
   ],
   "asset" : {
      "extras" : {
         "GOOGLE_processor_version" : 294144208
      },
      "generator" : "Obj2GltfConverter",
      "version" : "2.0"
   },
   "bufferViews" : [
      {
         "buffer" : 0,
         "byteLength" : 120,
         "byteOffset" : 0,
         "byteStride" : 0,
         "name" : "buffer-0-bufferview-ushort",
         "target" : 34963
      },
      {
         "buffer" : 0,
         "byteLength" : 480,
         "byteOffset" : 120,
         "byteStride" : 8,
         "name" : "buffer-0-bufferview-vec2",
         "target" : 34962
      },
      {
         "buffer" : 0,
         "byteLength" : 1440,
         "byteOffset" : 600,
         "byteStride" : 12,
         "name" : "buffer-0-bufferview-vec3",
         "target" : 34962
      },
      {
         "buffer" : 0,
         "byteLength" : 1,
         "byteOffset" : 0,
         "name" : "buffer-0-bufferview-vec4"
      }
   ],
   "buffers" : [
      {
         "byteLength" : 2048,
         "name" : "buffer-0",
         "uri" : "star.bin"
      }
   ],
   "cameras" : [
      {
         "perspective" : {
            "yfov" : 0.7853981633974483,
            "znear" : 0.1000000014901161
         },
         "type" : "perspective"
      }
   ],
   "extensions" : {
      "KHR_lights_punctual" : {
         "lights" : [
            {
               "color" : [ 1, 0.9333333333333333, 0.8666666666666667 ],
               "intensity" : 0.25,
               "name" : "headLight",
               "type" : "directional"
            },
            {
               "color" : [ 1, 0.9333333333333333, 0.8666666666666667 ],
               "intensity" : 0.324999988079071,
               "name" : "keyLight",
               "type" : "directional"
            }
         ]
      }
   },
   "extensionsUsed" : [ "GOOGLE_backgrounds", "GOOGLE_camera_settings", "KHR_lights_punctual" ],
   "extras" : {
      "GOOGLE_initial_camera_motion" : {
         "motionPath" : "FULL_ROTATION"
      },
      "GOOGLE_lighting_rig" : {
         "disableShadows" : false
      }
   },
   "materials" : [
      {
         "alphaMode" : "OPAQUE",
         "doubleSided" : true,
         "name" : "blinn2SG",
         "pbrMetallicRoughness" : {
            "baseColorFactor" : [ 1, 0.83, 0.04, 1 ],
            "metallicFactor" : 0,
            "roughnessFactor" : 0.9699476628648295
         }
      }
   ],
   "meshes" : [
      {
         "name" : "buffer-0-mesh-0",
         "primitives" : [
            {
               "attributes" : {
                  "NORMAL" : 2,
                  "POSITION" : 1,
                  "TEXCOORD_0" : 3
               },
               "indices" : 0,
               "material" : 0,
               "mode" : 4
            }
         ]
      }
   ],
   "nodes" : [
      {
         "mesh" : 0,
         "name" : "node-0"
      },
      {
         "children" : [ 2 ]
      },
      {
         "children" : [ 3 ],
         "extras" : {
            "isTransformNode" : 1
         },
         "translation" : [ -0.3752299499511723, -0.5087434005737309, 92.56846682100982 ]
      },
      {
         "children" : [ 0 ],
         "translation" : [ 0.3752299499511723, 0.5087434005737309, -92.56846682100982 ]
      },
      {
         "camera" : 0,
         "children" : [ 5 ],
         "rotation" : [
            -0.03766979476524315,
            -0.6558618425532831,
            -0.03280046129546012,
            0.753226632418001
         ],
         "translation" : [ -335.7259542598432, 33.44061101913265, 139.1076864795154 ]
      },
      {
         "extensions" : {
            "KHR_lights_punctual" : {
               "light" : 0
            }
         },
         "extras" : {
            "isHeadLight" : 1
         },
         "name" : "headLightNode",
         "translation" : [ -117.6922385606075, 58.84611928030373, 58.84611928030373 ]
      },
      {
         "extensions" : {
            "KHR_lights_punctual" : {
               "light" : 1
            }
         },
         "extras" : {
            "isKeyLight" : 1
         },
         "name" : "keyLightNode",
         "rotation" : [ -0.7505326882858236, -0.3752663441429118, 0, 0.5439447166468927 ],
         "scale" : [ 0, 0, 118.8691609462135 ],
         "translation" : [ -118.7356090803974, 237.7383330822057, -33.64092910290096 ]
      }
   ],
   "scene" : 0,
   "scenes" : [
      {
         "extensions" : {
            "GOOGLE_backgrounds" : {
               "color" : [ 0.1568627450980392, 0.207843137254902, 0.5764705882352941 ]
            },
            "GOOGLE_camera_settings" : {}
         },
         "extras" : {
            "GOOGLE_camera_index" : {
               "cameraIndex" : 0,
               "nodeIndex" : 4
            },
            "GOOGLE_geometry_data" : {
               "stats" : {
                  "centroid" : [ 0.1335518658161163, 1.118977864583333e-05, 85.22823184331259 ],
                  "radius" : 117.6922385606075,
                  "stdev" : 70.4714560649191
               },
               "visualCenterPoint" : [ -0.3752299499511723, -0.5087434005737309, 92.56846682100982 ]
            },
            "GOOGLE_hemi_light" : {
               "groundColor" : [ 0.1568627450980392, 0.207843137254902, 0.5764705882352941 ]
            }
         },
         "name" : "scene-0",
         "nodes" : [ 1, 4, 6 ]
      }
   ]
}
