{
    "asset" : {
        "generator" : "Khronos glTF Blender I/O v1.3.48",
        "version" : "2.0"
    },
    "scene" : 0,
    "scenes" : [
        {
            "name" : "Scene",
            "nodes" : [
                0,
                1,
                3
            ]
        }
    ],
    "nodes" : [
        {
            "name" : "Node_1"
        },
        {
            "mesh" : 0,
            "name" : "node-0",
            "rotation" : [
                -0.5000000596046448,
                0.4999999701976776,
                0.4999999701976776,
                0.5000000596046448
            ],
            "scale" : [
                0.01920602284371853,
                0.016810256987810135,
                0.007112439721822739
            ],
            "translation" : [
                0.2440016269683838,
                2.4243927001953125,
                0.04027581214904785
            ]
        },
        {
            "name" : "headLightNode",
            "translation" : [
                -292.7330017089844,
                146.3665008544922,
                -146.3665008544922
            ]
        },
        {
            "children" : [
                2
            ],
            "name" : "Camera.002",
            "rotation" : [
                0.4707235097885132,
                -0.31595897674560547,
                0.18529677391052246,
                0.8026546239852905
            ],
            "translation" : [
                -491.8305358886719,
                385.26611328125,
                651.63525390625
            ]
        }
    ],
    "materials" : [
        {
            "doubleSided" : true,
            "emissiveFactor" : [
                0,
                0,
                0
            ],
            "name" : "blinn10SG",
            "pbrMetallicRoughness" : {
                "baseColorFactor" : [
                    0.1899999976158142,
                    0.09000000357627869,
                    0.05999999865889549,
                    1
                ],
                "metallicFactor" : 0,
                "roughnessFactor" : 0.9699476361274719
            }
        }
    ],
    "meshes" : [
        {
            "name" : "buffer-0-mesh-0.001",
            "primitives" : [
                {
                    "attributes" : {
                        "POSITION" : 0,
                        "NORMAL" : 1,
                        "TEXCOORD_0" : 2
                    },
                    "indices" : 3,
                    "material" : 0
                }
            ]
        }
    ],
    "accessors" : [
        {
            "bufferView" : 0,
            "componentType" : 5126,
            "count" : 240,
            "max" : [
                217.3031005859375,
                107.79912567138672,
                22.657440185546875
            ],
            "min" : [
                -217.3031005859375,
                -107.79912567138672,
                -157.79937744140625
            ],
            "type" : "VEC3"
        },
        {
            "bufferView" : 1,
            "componentType" : 5126,
            "count" : 240,
            "type" : "VEC3"
        },
        {
            "bufferView" : 2,
            "componentType" : 5126,
            "count" : 240,
            "type" : "VEC2"
        },
        {
            "bufferView" : 3,
            "componentType" : 5123,
            "count" : 240,
            "type" : "SCALAR"
        }
    ],
    "bufferViews" : [
        {
            "buffer" : 0,
            "byteLength" : 2880,
            "byteOffset" : 0
        },
        {
            "buffer" : 0,
            "byteLength" : 2880,
            "byteOffset" : 2880
        },
        {
            "buffer" : 0,
            "byteLength" : 1920,
            "byteOffset" : 5760
        },
        {
            "buffer" : 0,
            "byteLength" : 480,
            "byteOffset" : 7680
        }
    ],
    "buffers" : [
        {
            "byteLength" : 8160,
            "uri" : "table.bin"
        }
    ]
}
